<svg width="346" height="69" viewBox="0 0 346 69" fill="none" xmlns="http://www.w3.org/2000/svg">
<path d="M14.4047 54V14.0819H0.942325V4.10233H39.9228V14.0819H26.3935V54H14.4047ZM46.6639 54V0.485585H58.5857V13.3451L57.983 20.1098C60.729 17.5647 64.4797 14.9526 69.6369 14.9526C77.942 14.9526 81.4918 20.9135 81.4918 30.4242V54H69.5699V31.8977C69.5699 26.6065 68.1634 25.133 65.1495 25.133C62.4704 25.133 60.863 26.3386 58.5857 28.5488V54H46.6639ZM100.393 54.9377C93.3603 54.9377 89.0738 49.7135 89.0738 43.3507C89.0738 35.3135 95.3696 30.96 110.238 29.3526C109.971 26.2716 108.363 24.4633 104.478 24.4633C101.464 24.4633 98.3166 25.6688 94.4989 27.8121L90.3463 19.9758C95.3696 16.9619 100.795 14.9526 106.756 14.9526C116.601 14.9526 122.16 20.4447 122.16 32.3665V54H112.449L111.645 50.1823H111.31C108.162 52.9953 104.612 54.9377 100.393 54.9377ZM104.478 45.6949C106.89 45.6949 108.497 44.5563 110.238 42.6809V36.586C102.804 37.5237 100.393 39.734 100.393 42.413C100.393 44.6233 102 45.6949 104.478 45.6949ZM131.366 54V15.8902H141.078L141.948 20.6456H142.149C145.297 17.5647 149.182 14.9526 154.339 14.9526C162.644 14.9526 166.194 20.9135 166.194 30.4242V54H154.272V31.8977C154.272 26.6065 152.865 25.133 149.852 25.133C147.172 25.133 145.565 26.3386 143.288 28.5488V54H131.366ZM191.993 54.9377C182.282 54.9377 173.307 47.5702 173.307 34.9116C173.307 22.32 182.282 14.9526 191.993 14.9526C201.638 14.9526 210.613 22.32 210.613 34.9116C210.613 47.5702 201.638 54.9377 191.993 54.9377ZM191.993 45.293C196.414 45.293 198.423 41.2744 198.423 34.9116C198.423 28.6158 196.414 24.5972 191.993 24.5972C187.506 24.5972 185.497 28.6158 185.497 34.9116C185.497 41.2744 187.506 45.293 191.993 45.293ZM234.505 54.9377C228.008 54.9377 221.043 52.5265 215.885 47.7712L222.717 39.533C226.2 42.547 230.821 44.6233 234.773 44.6233C239.193 44.6233 241.27 42.9488 241.27 40.2698C241.27 37.3898 238.523 36.4521 234.237 34.6437L227.874 31.9647C222.65 29.8884 217.761 25.5349 217.761 18.3014C217.761 9.9293 225.262 3.23163 235.844 3.23163C241.604 3.23163 247.699 5.44186 252.053 9.79535L246.092 17.2967C242.81 14.8186 239.729 13.4791 235.844 13.4791C232.161 13.4791 229.95 14.9526 229.95 17.5647C229.95 20.3777 233.031 21.4493 237.452 23.1907L243.681 25.6688C249.843 28.147 253.526 32.2995 253.526 39.3321C253.526 47.6372 246.561 54.9377 234.505 54.9377ZM282.371 45.1591C288.935 45.1591 293.021 39.1981 293.021 28.8167C293.021 19.1721 288.935 13.4791 282.371 13.4791C275.808 13.4791 271.789 19.1721 271.789 28.8167C271.789 39.1981 275.808 45.1591 282.371 45.1591ZM298.981 68.0651C288.131 68.0651 280.563 62.3721 276.946 54.4019C266.364 52.0577 259.532 42.8819 259.532 28.8167C259.532 12.4744 268.775 3.23163 282.371 3.23163C295.968 3.23163 305.21 12.5414 305.21 28.8167C305.21 42.0781 299.115 50.986 289.538 53.933C291.815 57.3488 296.302 58.6214 300.321 58.6214C302.464 58.6214 304.407 58.2195 305.947 57.6837L308.09 66.3907C306.148 67.3953 302.933 68.0651 298.981 68.0651ZM314.462 54V4.10233H326.451V43.9535H345.874V54H314.462Z" fill="#604BCC"/>
</svg>
